<svg width="24" height="24" viewBox="0 0 24 24" fill="none" xmlns="http://www.w3.org/2000/svg">
<path d="M12.2 12.9C13.6912 12.9 14.9 11.6912 14.9 10.2C14.9 8.70883 13.6912 7.5 12.2 7.5C10.7088 7.5 9.5 8.70883 9.5 10.2C9.5 11.6912 10.7088 12.9 12.2 12.9Z" stroke="#3A3A3A" stroke-width="2" stroke-linecap="round" stroke-linejoin="round"/>
<path d="M12.2 3C10.2904 3 8.45909 3.75857 7.10883 5.10883C5.75857 6.45909 5 8.29044 5 10.2C5 11.9028 5.3618 13.017 6.35 14.25L12.2 21L18.05 14.25C19.0382 13.017 19.4 11.9028 19.4 10.2C19.4 8.29044 18.6414 6.45909 17.2912 5.10883C15.9409 3.75857 14.1096 3 12.2 3V3Z" stroke="#3A3A3A" stroke-width="2" stroke-linecap="round" stroke-linejoin="round"/>
</svg>
